<svg width="48" height="41" viewBox="0 0 48 41" fill="none" xmlns="http://www.w3.org/2000/svg">
<path d="M0.509095 40.5C0.771801 33.29 6.69306 27.5 14.0231 27.5C21.3511 27.5 27.2302 33.2881 27.491 40.5H23.1178C22.8564 35.695 18.8512 31.8597 13.9768 31.8597C9.10249 31.8597 5.09728 35.695 4.83588 40.5H0.509095Z" fill="white" stroke="#001423"/>
<path d="M29.2992 34.0488C25.6845 28.0059 27.6861 20.3278 33.7908 16.6768L35.9631 20.2607C31.9497 22.8032 30.5998 27.9409 33.0753 31.9953C35.5436 36.0377 40.8455 37.522 45.1297 35.41L47.298 38.9874C40.8809 42.2412 32.9121 40.0883 29.2992 34.0488Z" fill="white" stroke="#001423"/>
<path d="M8.693 22.9792L10.841 19.4394C15.126 21.5586 20.4629 20.0844 22.8952 16.016C25.3211 11.9581 24.0097 6.80543 20.0181 4.2695L22.189 0.691824C28.3086 4.37334 30.3172 12.0233 26.7047 18.0724C23.0915 24.1226 15.0647 26.2298 8.693 22.9792Z" fill="white" stroke="#001423"/>
</svg>
