<svg width="48" height="48" viewBox="0 0 48 48" fill="none" xmlns="http://www.w3.org/2000/svg">
<rect width="48" height="48" rx="24" fill="white"/>
<path d="M25.3045 36.2892H22.9195C22.9195 32.8223 20.1135 30.0117 16.6525 30.0117C13.1916 30.0117 10.3853 32.8223 10.3853 36.2892H8C8 31.5027 11.8737 27.6224 16.6525 27.6224C21.4314 27.6224 25.3045 31.5027 25.3045 36.2892Z" fill="#001423"/>
<path d="M29.6794 20.4449L30.964 22.4578C28.0478 24.325 27.1949 28.207 29.0593 31.1271C30.9237 34.0473 34.7988 34.903 37.7152 33.0374L39 35.0506C34.9738 37.6294 29.6233 36.4497 27.0495 32.4168C24.4757 28.384 25.6535 23.0238 29.6794 20.4449Z" fill="#001423"/>
<path d="M22.1375 9.9375L20.853 11.9504C23.7691 13.8176 24.622 17.6996 22.7579 20.6197C20.8938 23.5398 17.0182 24.3955 14.1021 22.5283L12.8172 24.5417C16.8435 27.1206 22.1939 25.9409 24.7677 21.908C27.3415 17.8751 26.1637 12.5164 22.1375 9.9375Z" fill="#001423"/>
</svg>
