<svg width="48" height="48" viewBox="0 0 48 48" fill="none" xmlns="http://www.w3.org/2000/svg">
<path d="M26.7941 43.8027H23.1011C23.1011 38.4346 18.7563 34.0826 13.3975 34.0826C8.03866 34.0826 3.69342 38.4346 3.69342 43.8027H0C0 36.3913 5.99793 30.3831 13.3975 30.3831C20.797 30.3831 26.7941 36.3913 26.7941 43.8027Z" fill="#001423"/>
<path d="M33.5677 19.2696L35.5567 22.3863C31.0414 25.2774 29.7208 31.2883 32.6076 35.8098C35.4944 40.3313 41.4944 41.6562 46.0102 38.7676L47.9996 41.8847C41.7654 45.8778 33.4808 44.0512 29.4956 37.8067C25.5104 31.5623 27.334 23.2627 33.5677 19.2696Z" fill="#001423"/>
<path d="M21.8904 3L19.9014 6.11671C24.4167 9.00785 25.7373 15.0187 22.851 19.5402C19.9646 24.0617 13.9637 25.3866 9.4484 22.4955L7.45898 25.613C13.6931 29.6061 21.9778 27.7795 25.963 21.535C29.9481 15.2905 28.1246 6.99306 21.8904 3Z" fill="#001423"/>
</svg>
